<?xml version="1.0" encoding="UTF-8" standalone="no"?>
<!-- Uploaded to: SVG Repo, www.svgrepo.com, Generator: SVG Repo Mixer Tools -->

<svg
   width="800px"
   height="800px"
   viewBox="0 0 24 24"
   fill="none"
   version="1.1"
   xmlns="http://www.w3.org/2000/svg">
  <path
     d="M 8.6703564,7.5604402 H 6.3619293 c -0.5772427,0 -1.0581136,0.4424687 -1.1060497,1.0177136 L 4.3309638,19.67711 c -0.053919,0.647066 0.4567308,1.20201 1.1060609,1.20201 H 18.563028 c 0.649285,0 1.159946,-0.554944 1.106005,-1.20201 L 18.744162,8.5781538 C 18.696214,8.0029089 18.21541,7.5604402 17.638157,7.5604402 h -2.30846 m -6.6593406,0 V 5.3406601 c 0,-1.2259512 0.9938283,-2.2197801 2.2197796,-2.2197801 h 2.21978 c 1.225985,0 2.219781,0.9938289 2.219781,2.2197801 v 2.2197801 m -6.6593406,0 h 6.6593406"
     stroke="#000000"
     stroke-width="2.21978"
     stroke-linejoin="round" />
  <path
     d="m 12,11.3857 v 5.76058"
     stroke="#000000"
     stroke-width="2.21978"
     stroke-linecap="round" />
  <path
     d="m 14.880112,14.371999 -5.7602242,-0.064"
     stroke="#000000"
     stroke-width="2.21978"
     stroke-linecap="round" />
</svg>
